<?xml version="1.0" standalone="no"?>
<!DOCTYPE svg PUBLIC "-//W3C//DTD SVG 20010904//EN"
 "http://www.w3.org/TR/2001/REC-SVG-20010904/DTD/svg10.dtd">
<svg version="1.0" xmlns="http://www.w3.org/2000/svg"
 width="500.000000pt" height="500.000000pt" viewBox="0 0 500.000000 500.000000"
 preserveAspectRatio="xMidYMid meet">

<g transform="translate(0.000000,500.000000) scale(0.100000,-0.100000)"
fill="#000000" stroke="none">
<path d="M0 2500 l0 -2500 2500 0 2500 0 0 2500 0 2500 -2500 0 -2500 0 0
-2500z m2670 691 c26 -4 -16 -6 -100 -3 -80 2 -149 5 -155 7 -20 7 212 3 255
-4z m-287 -8 c-7 -2 -19 -2 -25 0 -7 3 -2 5 12 5 14 0 19 -2 13 -5z m-49 -45
l-19 -22 27 17 c15 9 30 17 33 17 11 0 4 -18 -12 -37 -10 -10 -14 -13 -9 -6 5
8 6 16 3 19 -6 6 -87 -64 -87 -76 0 -5 12 -11 28 -13 22 -3 20 -4 -10 -6 -32
-1 -36 2 -31 17 6 16 5 15 -15 -2 -11 -10 -27 -16 -34 -13 -9 4 -9 6 3 6 14 1
44 30 94 89 l19 23 -53 -20 c-29 -12 -66 -28 -83 -37 -16 -8 -32 -14 -34 -12
-7 7 150 82 169 80 11 0 15 4 11 11 -5 9 -3 9 6 0 11 -10 10 -16 -6 -35z m224
35 c-10 -2 -28 -2 -40 0 -13 2 -5 4 17 4 22 1 32 -1 23 -4z m195 0 c-7 -2 -19
-2 -25 0 -7 3 -2 5 12 5 14 0 19 -2 13 -5z m-103 -9 c0 -28 -102 -115 -117
-100 -4 3 -1 6 6 6 6 0 32 19 58 43 l46 42 -29 6 -29 7 33 1 c17 0 32 -2 32
-5z m54 -8 c-5 -13 11 -111 23 -143 4 -9 -4 -13 -23 -12 -22 1 -24 3 -8 6 20
4 21 6 8 61 -16 68 -18 102 -4 102 5 0 7 -6 4 -14z m126 4 c20 -6 21 -8 5 -8
-11 0 -31 4 -45 8 -20 6 -21 8 -5 8 11 0 31 -4 45 -8z m-423 -50 c-14 -33 -24
-46 -29 -37 -5 8 -8 7 -8 -5 0 -13 11 -18 48 -21 44 -3 44 -4 -9 -4 l-57 0 10
30 c8 22 13 26 20 15 7 -9 8 -7 5 10 -3 12 -2 20 2 17 5 -2 13 7 19 20 21 46
20 25 -1 -25z m373 40 c20 -6 21 -8 5 -8 -11 0 -31 4 -45 8 -20 6 -21 8 -5 8
11 0 31 -4 45 -8z m-307 -7 c-7 -2 -19 -2 -25 0 -7 3 -2 5 12 5 14 0 19 -2 13
-5z m414 1 c-3 -3 -12 -4 -19 -1 -8 3 -5 6 6 6 11 1 17 -2 13 -5z m-50 -10
c-3 -3 -12 -4 -19 -1 -8 3 -5 6 6 6 11 1 17 -2 13 -5z m108 -4 c13 -5 14 -9 5
-9 -8 0 -24 4 -35 9 -13 5 -14 9 -5 9 8 0 24 -4 35 -9z m-68 -6 c-3 -3 -12 -4
-19 -1 -8 3 -5 6 6 6 11 1 17 -2 13 -5z m-91 -26 c-1 -19 4 -23 26 -23 14 1
24 -3 22 -7 -8 -12 -38 -10 -52 4 -14 14 -16 48 -4 48 5 0 8 -10 8 -22z m211
16 c-3 -3 -12 -4 -19 -1 -8 3 -5 6 6 6 11 1 17 -2 13 -5z m70 -20 c-3 -3 -12
-4 -19 -1 -8 3 -5 6 6 6 11 1 17 -2 13 -5z m178 -18 c11 -2 -22 -4 -72 -5 -51
0 -93 3 -93 7 0 7 117 6 165 -2z m-207 -13 c-10 -2 -28 -2 -40 0 -13 2 -5 4
17 4 22 1 32 -1 23 -4z m319 1 c-3 -3 -12 -4 -19 -1 -8 3 -5 6 6 6 11 1 17 -2
13 -5z m-844 -11 c-7 -2 -19 -2 -25 0 -7 3 -2 5 12 5 14 0 19 -2 13 -5z m337
-22 c0 -4 -22 -37 -49 -73 -53 -70 -103 -102 -176 -112 -29 -5 -22 -1 23 13
41 12 76 30 99 52 44 42 94 114 86 123 -4 3 -1 6 5 6 7 0 12 -4 12 -9z m-770
-11 c0 -5 -10 -10 -22 -9 -22 0 -22 1 -3 9 11 5 21 9 23 9 1 1 2 -3 2 -9z
m1203 -17 c-7 -2 -21 -2 -30 0 -10 3 -4 5 12 5 17 0 24 -2 18 -5z m-655 -10
c-21 -2 -57 -2 -80 0 -24 2 -7 4 37 4 44 0 63 -2 43 -4z m577 -3 c-27 -12 -43
-12 -25 0 8 5 22 9 30 9 10 0 8 -3 -5 -9z m-758 -7 c-20 -2 -52 -2 -70 0 -17
2 0 4 38 4 39 0 53 -2 32 -4z m-500 -9 c-3 -3 -12 -4 -19 -1 -8 3 -5 6 6 6 11
1 17 -2 13 -5z m128 -36 c19 -22 19 -22 -10 2 -48 40 -51 43 -30 32 11 -6 29
-21 40 -34z m202 36 c-3 -3 -12 -4 -19 -1 -8 3 -5 6 6 6 11 1 17 -2 13 -5z
m878 -4 c-3 -5 -12 -10 -18 -10 -7 0 -6 4 3 10 19 12 23 12 15 0z m175 -12
c42 -21 90 -76 90 -102 0 -6 -9 5 -21 24 -59 99 -172 115 -249 36 -27 -29 -34
-45 -38 -90 -2 -29 1 -62 7 -72 6 -11 11 -14 11 -6 0 8 12 0 26 -17 14 -17 32
-31 39 -31 20 0 32 69 14 82 -12 8 -11 9 1 5 11 -3 14 -16 13 -49 l-2 -44 36
-2 c21 -2 39 -5 41 -7 8 -7 59 24 65 38 3 8 -7 27 -24 43 -16 15 -29 35 -28
43 0 14 1 14 6 1 9 -25 55 -70 66 -63 5 3 1 -6 -8 -21 -10 -15 -25 -31 -34
-36 -12 -7 -13 -9 -2 -10 8 0 24 8 35 18 20 16 20 16 7 -1 -8 -9 -12 -19 -10
-20 2 -2 49 -11 104 -21 116 -19 278 -56 273 -62 -2 -2 -73 10 -158 26 -174
32 -419 64 -620 81 -257 21 -771 13 -1085 -17 -55 -5 -61 -4 -74 18 -13 22
-13 22 5 6 20 -17 31 -17 164 -2 99 12 130 13 534 20 393 6 400 7 377 25 -13
11 -19 19 -14 19 6 0 21 -11 35 -23 19 -18 42 -25 91 -30 l65 -6 -3 57 c-4 54
-1 48 11 -25 4 -25 10 -33 26 -33 15 0 18 4 13 18 -32 78 -25 140 23 193 27
29 88 58 127 59 12 0 41 -10 65 -22z m70 -3 c13 -14 21 -25 18 -25 -2 0 -15
11 -28 25 -13 14 -21 25 -18 25 2 0 15 -11 28 -25z m-1570 12 c0 -2 -12 -14
-27 -28 l-28 -24 24 28 c23 25 31 32 31 24z m77 -3 c-3 -3 -12 -4 -19 -1 -8 3
-5 6 6 6 11 1 17 -2 13 -5z m117 -13 c28 -19 66 -67 66 -85 0 -5 -10 6 -23 25
-12 19 -42 44 -67 57 -27 13 -37 22 -25 22 11 0 33 -9 49 -19z m-179 -13 c-15
-12 -36 -35 -46 -52 -10 -17 -19 -25 -19 -19 0 16 69 93 83 93 5 0 -3 -10 -18
-22z m763 15 c-10 -2 -26 -2 -35 0 -10 3 -2 5 17 5 19 0 27 -2 18 -5z m470 0
c-16 -2 -40 -2 -55 0 -16 2 -3 4 27 4 30 0 43 -2 28 -4z m-555 -10 c-13 -2
-33 -2 -45 0 -13 2 -3 4 22 4 25 0 35 -2 23 -4z m705 -5 c-22 -6 -50 -24 -68
-44 -16 -19 -30 -31 -30 -26 0 11 61 68 80 75 8 3 24 5 35 5 11 0 3 -5 -17
-10z m69 6 c-3 -3 -12 -4 -19 -1 -8 3 -5 6 6 6 11 1 17 -2 13 -5z m-874 -11
c-13 -2 -33 -2 -45 0 -13 2 -3 4 22 4 25 0 35 -2 23 -4z m912 -3 c3 -6 -1 -7
-9 -4 -18 7 -21 14 -7 14 6 0 13 -4 16 -10z m-1300 -20 c10 -11 16 -20 13 -20
-3 0 -13 9 -23 20 -10 11 -16 20 -13 20 3 0 13 -9 23 -20z m293 13 c-10 -2
-28 -2 -40 0 -13 2 -5 4 17 4 22 1 32 -1 23 -4z m-478 -7 c0 -2 -8 -10 -17
-17 -16 -13 -17 -12 -4 4 13 16 21 21 21 13z m377 -2 c-3 -3 -12 -4 -19 -1 -8
3 -5 6 6 6 11 1 17 -2 13 -5z m1063 -51 c8 3 24 8 35 12 13 4 12 1 -5 -9 -14
-8 -31 -15 -37 -16 -12 0 -44 50 -42 67 0 4 8 -7 17 -25 10 -21 22 -32 32 -29z
m148 32 c-3 -3 -9 2 -12 12 -6 14 -5 15 5 6 7 -7 10 -15 7 -18z m-212 -51 c-3
-8 -11 -14 -18 -13 -10 0 -10 2 0 6 6 2 13 19 13 36 1 25 3 27 6 9 3 -13 2
-30 -1 -38z m148 48 c3 -5 -1 -9 -9 -9 -8 0 -12 4 -9 9 3 4 7 8 9 8 2 0 6 -4
9 -8z m-1410 -41 c-2 -3 -12 3 -22 13 -16 17 -16 18 5 5 12 -7 20 -15 17 -18z
m52 -10 c-18 -18 -25 -34 -21 -43 6 -10 5 -11 -5 -1 -12 11 -9 18 15 43 16 16
31 30 34 30 2 0 -8 -13 -23 -29z m1334 15 c0 -2 -8 -10 -17 -17 -16 -13 -17
-12 -4 4 13 16 21 21 21 13z m-223 -68 c-2 -13 -4 -3 -4 22 0 25 2 35 4 23 2
-13 2 -33 0 -45z m-1350 5 c-3 -10 -5 -2 -5 17 0 19 2 27 5 18 2 -10 2 -26 0
-35z m796 40 c-7 -2 -19 -2 -25 0 -7 3 -2 5 12 5 14 0 19 -2 13 -5z m884 -60
c-2 -16 -4 -5 -4 22 0 28 2 40 4 28 2 -13 2 -35 0 -50z m-934 50 c-7 -2 -21
-2 -30 0 -10 3 -4 5 12 5 17 0 24 -2 18 -5z m650 0 c-7 -2 -19 -2 -25 0 -7 3
-2 5 12 5 14 0 19 -2 13 -5z m107 -13 c0 -14 -6 -20 -22 -19 -17 1 -19 2 -5 6
9 2 17 8 17 13 0 5 -8 11 -17 13 -14 4 -12 5 5 6 16 1 22 -5 22 -19z m-827 3
c-7 -2 -21 -2 -30 0 -10 3 -4 5 12 5 17 0 24 -2 18 -5z m-70 -10 c-7 -2 -21
-2 -30 0 -10 3 -4 5 12 5 17 0 24 -2 18 -5z m800 -10 c-7 -2 -21 -2 -30 0 -10
3 -4 5 12 5 17 0 24 -2 18 -5z m-338 -13 c13 -5 14 -9 5 -9 -8 0 -24 4 -35 9
-13 5 -14 9 -5 9 8 0 24 -4 35 -9z m-87 -7 c-15 -2 -42 -2 -60 0 -18 2 -6 4
27 4 33 0 48 -2 33 -4z m-125 -10 c-13 -2 -35 -2 -50 0 -16 2 -5 4 22 4 28 0
40 -2 28 -4z m687 -13 c42 -23 32 -27 -11 -4 -29 14 -32 14 -45 -3 -14 -17
-14 -16 -4 5 13 26 15 27 60 2z m-797 3 c-13 -2 -33 -2 -45 0 -13 2 -3 4 22 4
25 0 35 -2 23 -4z m1037 3 c0 -2 -8 -10 -17 -17 -16 -13 -17 -12 -4 4 13 16
21 21 21 13z m-43 -32 c-3 -3 -12 -4 -19 -1 -8 3 -5 6 6 6 11 1 17 -2 13 -5z
m-1857 -69 c-80 -13 -208 -35 -285 -49 -76 -14 -141 -24 -143 -22 -13 14 444
94 533 94 22 0 -25 -10 -105 -23z m778 -12 c-53 -2 -143 -2 -200 0 -57 1 -13
3 97 3 110 0 156 -2 103 -3z m-385 -10 c-13 -2 -35 -2 -50 0 -16 2 -5 4 22 4
28 0 40 -2 28 -4z m625 0 c-10 -2 -28 -2 -40 0 -13 2 -5 4 17 4 22 1 32 -1 23
-4z m227 -28 c-5 -2 -165 -5 -355 -7 -190 -2 -318 -1 -285 3 63 6 657 10 640
4z m103 -12 c-15 -2 -42 -2 -60 0 -18 2 -6 4 27 4 33 0 48 -2 33 -4z m-825
-10 c-13 -2 -33 -2 -45 0 -13 2 -3 4 22 4 25 0 35 -2 23 -4z m-1022 -133 c15
0 19 -7 19 -35 0 -40 -17 -47 -26 -10 -8 32 -43 41 -95 26 -102 -31 -106 -192
-6 -244 47 -24 93 -16 101 19 9 36 28 29 24 -8 l-3 -33 -65 -3 c-80 -4 -123
16 -151 70 -57 111 34 241 155 222 16 -2 37 -4 47 -4z m2072 4 c34 -6 37 -9
37 -40 0 -19 -4 -34 -10 -34 -5 0 -10 9 -10 20 0 44 -82 50 -133 10 -76 -60
-45 -203 49 -229 45 -12 84 1 84 28 0 11 5 23 10 26 6 4 10 -10 10 -33 l0 -40
-47 -4 c-94 -8 -163 30 -185 103 -22 75 12 146 86 180 45 21 54 22 109 13z
m273 -130 c39 -108 53 -138 71 -145 37 -14 27 -19 -37 -19 -33 0 -60 4 -60 10
0 6 9 10 19 10 19 0 19 2 4 45 -15 45 -15 45 -63 45 -47 0 -48 -1 -64 -40 -20
-49 -20 -50 -1 -50 8 0 15 -4 15 -10 0 -5 -20 -10 -45 -10 -25 0 -45 5 -45 10
0 6 8 10 18 10 13 0 31 35 72 140 30 77 58 140 61 140 3 0 28 -61 55 -136z
m-2076 91 c0 -41 -17 -47 -26 -10 -6 24 -10 26 -58 23 l-51 -3 0 -50 c0 -49 1
-50 33 -53 23 -2 32 1 32 12 0 8 5 18 10 21 6 4 10 -13 10 -44 0 -28 -4 -51
-10 -51 -5 0 -10 9 -10 21 0 17 -5 20 -32 17 -33 -3 -33 -3 -33 -58 l0 -55 58
-3 c55 -3 57 -2 57 23 0 14 5 25 10 25 6 0 10 -16 10 -35 l0 -35 -105 0 c-63
0 -105 4 -105 10 0 6 9 10 20 10 19 0 20 7 20 125 0 118 -1 125 -20 125 -11 0
-20 5 -20 10 0 6 42 10 105 10 l105 0 0 -35z m176 -52 c102 -133 94 -131 94
-25 0 75 -3 92 -15 92 -8 0 -15 5 -15 10 0 6 21 10 46 10 27 0 43 -4 39 -10
-3 -5 -13 -10 -20 -10 -12 0 -15 -27 -17 -137 l-3 -138 -84 110 c-46 61 -90
117 -98 125 -11 12 -13 -4 -13 -98 0 -105 1 -112 20 -112 11 0 20 -4 20 -10 0
-5 -20 -10 -45 -10 -25 0 -45 5 -45 10 0 6 7 10 15 10 13 0 15 21 15 125 0
118 -1 125 -20 125 -11 0 -20 5 -20 10 0 6 18 10 39 10 38 0 43 -4 107 -87z
m403 50 c-1 -37 -2 -37 -8 -8 -6 27 -10 30 -46 30 l-40 0 -3 -127 c-2 -122 -2
-128 17 -128 11 0 23 -4 26 -10 4 -6 -18 -10 -60 -10 -42 0 -64 4 -60 10 3 6
15 10 26 10 18 0 19 8 19 125 l0 125 -40 0 c-33 0 -40 -3 -40 -19 0 -11 -4
-23 -10 -26 -6 -4 -10 8 -10 29 l0 36 115 0 115 0 -1 -37z m124 30 c-21 -4
-23 -10 -24 -81 -1 -54 -3 -69 -9 -52 l-8 25 -1 -24 c-2 -36 20 -99 41 -117
10 -10 35 -21 56 -25 32 -7 30 -8 -17 -5 -82 5 -91 21 -91 157 0 104 -1 110
-22 119 -17 6 -8 9 37 8 33 0 50 -3 38 -5z m181 -5 c-20 -9 -22 -19 -26 -118
-3 -89 -7 -112 -22 -129 -11 -12 -24 -21 -29 -21 -6 0 -1 10 11 23 20 21 22
34 22 129 0 99 -1 106 -22 116 -20 9 -15 11 32 11 45 0 51 -2 34 -11z m210 -2
c55 -23 61 -95 10 -118 -13 -6 -23 -14 -22 -17 24 -51 73 -121 84 -121 8 0 14
-4 14 -10 0 -5 -13 -10 -30 -10 -26 0 -33 7 -55 50 -27 53 -61 90 -82 90 -9 0
-13 -17 -13 -58 0 -51 3 -60 23 -70 18 -9 12 -11 -38 -11 -52 0 -57 2 -36 12
22 10 23 15 17 71 -3 32 -6 87 -6 121 0 54 -3 63 -22 73 -36 17 115 15 156 -2z
m202 -1 c-17 -13 -17 -16 14 -69 17 -31 33 -56 35 -56 1 0 19 27 38 59 35 58
35 59 14 66 -21 7 -20 8 6 12 15 2 39 3 55 1 l27 -4 -26 -11 c-17 -7 -42 -38
-68 -83 -33 -57 -41 -82 -41 -121 0 -42 3 -49 20 -49 11 0 20 -4 20 -10 0 -5
-25 -10 -55 -10 -30 0 -55 5 -55 10 0 6 9 10 20 10 17 0 20 7 20 49 0 38 -9
64 -42 124 -27 48 -49 77 -60 77 -9 0 -20 5 -23 10 -4 6 17 10 57 10 56 -1 61
-2 44 -15z m1083 -9 c36 -33 18 -116 -26 -116 -7 0 -13 -4 -13 -10 0 -5 4 -10
9 -10 5 0 21 -25 37 -55 18 -35 35 -55 47 -55 9 0 17 -4 17 -10 0 -5 -16 -10
-35 -10 -33 0 -37 3 -59 54 -24 54 -66 94 -85 81 -6 -3 -9 -29 -8 -58 3 -45 7
-52 25 -55 46 -7 19 -22 -38 -22 -33 0 -60 4 -60 10 0 6 9 10 20 10 19 0 20 7
20 125 0 102 -3 125 -14 125 -8 0 -18 5 -22 11 -5 8 18 10 79 8 66 -3 90 -8
106 -23z m249 -13 c4 -40 -15 -45 -20 -5 -3 23 -8 27 -39 30 -25 2 -40 -3 -54
-18 -26 -29 -8 -63 53 -94 60 -30 75 -48 75 -88 0 -22 -8 -38 -27 -55 -24 -20
-37 -23 -85 -21 -55 3 -56 3 -59 36 -4 38 15 43 24 7 13 -51 105 -39 112 14 5
29 -21 57 -74 80 -67 30 -84 82 -39 127 22 21 33 25 78 22 51 -3 52 -4 55 -35z
m-2697 -412 c683 -140 1394 -145 2180 -16 213 36 280 40 152 11 -157 -35 -381
-69 -653 -97 -166 -17 -802 -23 -990 -10 -272 19 -691 84 -782 120 -37 15 -7
12 93 -8z m1597 12 c-10 -2 -28 -2 -40 0 -13 2 -5 4 17 4 22 1 32 -1 23 -4z
m-123 -14 c-33 -4 -159 -9 -280 -12 l-220 -6 210 9 c116 5 217 11 225 14 8 2
40 4 70 3 l55 0 -60 -8z m-532 -16 c-13 -2 -33 -2 -45 0 -13 2 -3 4 22 4 25 0
35 -2 23 -4z m980 0 c-7 -2 -19 -2 -25 0 -7 3 -2 5 12 5 14 0 19 -2 13 -5z
m-75 -10 c-10 -2 -28 -2 -40 0 -13 2 -5 4 17 4 22 1 32 -1 23 -4z m-123 -13
c-33 -4 -96 -7 -140 -7 l-80 1 90 6 c50 3 113 6 140 7 l50 0 -60 -7z m-282
-17 c-29 -2 -77 -2 -105 0 -29 2 -6 3 52 3 58 0 81 -1 53 -3z m-1311 -35 c-16
-16 -15 -51 1 -67 10 -10 9 -11 -5 -6 -10 4 -20 15 -23 26 -7 21 10 59 27 59
9 0 9 -3 0 -12z m58 2 c0 -5 -2 -10 -4 -10 -3 0 -8 5 -11 10 -3 6 -1 10 4 10
6 0 11 -4 11 -10z m1958 -32 c8 -41 7 -57 -2 -47 -10 10 -23 89 -16 89 5 0 13
-19 18 -42z m-1834 -25 c8 -58 -1 -71 -10 -15 -4 23 -10 39 -15 36 -5 -3 -6 2
-3 10 11 28 21 17 28 -31z m1698 5 c5 -41 3 -57 -6 -47 -9 10 -15 89 -7 89 5
0 11 -19 13 -42z m32 7 c-4 -16 0 -26 13 -34 10 -6 13 -11 7 -11 -17 0 -47 37
-35 44 6 4 7 14 4 23 -4 11 -3 14 5 9 7 -4 10 -17 6 -31z m-137 -7 c-3 -7 -5
-2 -5 12 0 14 2 19 5 13 2 -7 2 -19 0 -25z m-1491 13 c-3 -5 4 -20 15 -35 11
-14 17 -30 14 -36 -10 -16 -25 -12 -18 5 3 9 -2 24 -12 35 -15 16 -14 40 1 40
3 0 3 -4 0 -9z m34 -1 c0 -5 -2 -10 -4 -10 -3 0 -8 5 -11 10 -3 6 -1 10 4 10
6 0 11 -4 11 -10z m1404 -29 c3 -22 12 -42 18 -44 8 -4 9 -6 2 -6 -17 -1 -31
20 -36 57 -6 46 8 40 16 -7z m-1671 9 c-3 -11 -9 -20 -13 -20 -5 0 -6 9 -3 20
3 11 9 20 13 20 5 0 6 -9 3 -20z m1587 10 c0 -5 -2 -10 -4 -10 -3 0 -8 5 -11
10 -3 6 -1 10 4 10 6 0 11 -4 11 -10z m-1504 -32 c-9 -12 -16 -19 -16 -15 0
11 24 47 28 42 2 -2 -3 -14 -12 -27z m268 2 c-4 -18 -1 -37 7 -47 7 -10 2 -8
-11 4 -21 19 -22 25 -12 48 16 34 23 32 16 -5z m76 -10 c0 -9 -10 -25 -22 -36
-18 -15 -20 -16 -9 -2 7 10 11 31 9 48 -4 24 -2 27 9 19 7 -7 13 -19 13 -29z
m1132 -1 c2 -22 1 -42 -3 -45 -4 -2 -9 16 -11 41 -2 25 0 45 3 45 4 0 9 -18
11 -41z m-1043 -14 c-2 -25 -6 -45 -11 -45 -10 0 -10 17 -2 59 9 45 15 38 13
-14z m903 0 c2 -25 0 -45 -3 -45 -4 0 -9 20 -11 45 -2 25 0 45 3 45 4 0 9 -20
11 -45z m-776 -10 c0 -25 -5 -45 -9 -45 -4 0 -7 20 -6 45 3 59 17 59 15 0z
m154 -38 c0 -5 -10 4 -23 20 -42 52 -50 68 -13 28 20 -22 36 -44 36 -48z m473
3 c10 -13 10 -13 -5 -1 -12 9 -17 26 -16 50 l1 36 4 -35 c3 -19 10 -42 16 -50z
m-376 8 c-2 -13 -4 -3 -4 22 0 25 2 35 4 23 2 -13 2 -33 0 -45z m-672 32 c3
-5 1 -10 -4 -10 -6 0 -11 5 -11 10 0 6 2 10 4 10 3 0 8 -4 11 -10z"/>
<path d="M2284 3088 l-29 -33 33 29 c30 28 37 36 29 36 -2 0 -16 -15 -33 -32z"/>
<path d="M3130 2731 c0 -5 7 -15 17 -22 15 -13 15 -12 4 9 -12 23 -21 28 -21
13z"/>
<path d="M3421 2352 c-7 -20 -15 -43 -17 -49 -4 -9 6 -13 35 -13 l40 0 -16 45
c-20 59 -28 62 -42 17z"/>
<path d="M2430 2370 l0 -60 30 0 c34 0 70 31 70 60 0 29 -36 60 -70 60 l-30 0
0 -60z"/>
<path d="M3692 2373 c3 -52 5 -58 26 -61 36 -5 72 24 72 57 0 36 -28 61 -69
61 l-32 0 3 -57z"/>
</g>
</svg>
